<svg xmlns="http://www.w3.org/2000/svg" width="1148" height="482" viewBox="0 0 1148 482">
<rect width="100%" height="100%" fill="#f8fafc"/>
<style>text{font-family:Arial,sans-serif;fill:#111827}.small{font-size:12px}.label{font-size:13px;font-weight:600}.title{font-size:16px;font-weight:700}.note{font-size:12px;fill:#475569}.axis{stroke:#cbd5e1;stroke-width:1}.ray{fill:none;stroke:#dc143c;stroke-width:3;stroke-linecap:round;stroke-linejoin:round}.ray2{fill:none;stroke:#0f766e;stroke-width:3;stroke-linecap:round;stroke-linejoin:round}.comp{fill:#fff7ed;stroke:#c2410c;stroke-width:2}.target{fill:#dbeafe;stroke:#1d4ed8;stroke-width:2}.fail{fill:#fee2e2;stroke:#b91c1c;stroke-width:2}.pass{fill:#dcfce7;stroke:#15803d;stroke-width:2}</style>
<g transform="translate(0,0)">
<rect x="0" y="0" width="560" height="410" rx="8" fill="#ffffff" stroke="#d1d5db"/>
<text class="title" x="18" y="26">HWP/PBS direct-placement result: PASS</text>
<rect class="pass" x="480" y="12" width="58" height="24" rx="5"/>
<text class="label" x="496" y="29">PASS</text>
<line class="axis" x1="42.00" y1="86.11" x2="404.34" y2="86.11"/>
<path class="ray" d="M 57.62 86.11 L 95.10 86.11 L 148.20 86.11 L 148.20 307.89"/>
<text class="small" x="154.20" y="301.89">HWP1:iface0 -> PBS1:iface0</text>
<path class="ray2" d="M 57.62 86.11 L 95.10 86.11 L 148.20 86.11 L 369.98 86.11"/>
<text class="small" x="375.98" y="80.11">HWP1:iface0 -> PBS1:iface0</text>
<rect class="comp" x="85.10" y="76.11" width="20" height="20" rx="3"/>
<text class="label" x="108.10" y="91.11">HWP1</text>
<rect class="comp" x="138.20" y="76.11" width="20" height="20" rx="3"/>
<text class="label" x="161.20" y="91.11">PBS1</text>
<circle class="target" cx="245.03" cy="86.11" r="8"/>
<text class="label" x="257.03" y="91.11">D1 H</text>
<circle class="target" cx="148.20" cy="242.29" r="8"/>
<text class="label" x="160.20" y="247.29">D2 V</text>
<text class="note" x="18" y="368">Raytracer found two 50/50 branches with expected H/V polarization.</text>
</g>
<g transform="translate(588,0)">
<rect x="0" y="0" width="560" height="410" rx="8" fill="#ffffff" stroke="#d1d5db"/>
<text class="title" x="18" y="26">Two-mirror direct-placement result: FAIL</text>
<rect class="fail" x="480" y="12" width="58" height="24" rx="5"/>
<text class="label" x="496" y="29">FAIL</text>
<line class="axis" x1="42.00" y1="239.63" x2="518.00" y2="239.63"/>
<path class="ray" d="M 73.32 239.63 L 449.11 239.63"/>
<text class="small" x="410.00" y="233.63">no element hits</text>
<rect class="comp" x="125.95" y="229.63" width="20" height="20" rx="3"/>
<text class="label" x="148.95" y="244.63">M1 origin</text>
<rect class="comp" x="125.95" y="104.37" width="20" height="20" rx="3"/>
<text class="label" x="148.95" y="119.37">M2 origin</text>
<circle class="target" cx="323.84" cy="114.37" r="8"/>
<text class="label" x="335.84" y="119.37">D_corner</text>
<text class="note" x="18" y="368">Coordinates used mirror hit points as sprite origins; ray missed the interfaces.</text>
<text class="note" x="18" y="388">Closest target miss: 100 mm</text>
</g>
<text class="small" x="16" y="460">Coordinates are in Optiverse mm. Generated from RayPath/report JSON, not a GUI screenshot.</text>
</svg>